<?xml version="1.0" encoding="utf-8"?>
<!-- Generator: Adobe Illustrator 25.2.1, SVG Export Plug-In . SVG Version: 6.00 Build 0)  -->
<svg version="1.1" id="Layer_1" xmlns="http://www.w3.org/2000/svg" xmlns:xlink="http://www.w3.org/1999/xlink" x="0px" y="0px"
	 viewBox="0 0 539 539" style="enable-background:new 0 0 539 539;" xml:space="preserve">
<style type="text/css">
	.st0{fill:#FFFFFF;}
</style>
<g>
	<path class="st0" d="M171.8,110.2c34,0,61.6,28.8,61.6,64.4c0,35.6-27.6,64.4-61.6,64.4s-61.6-28.8-61.6-64.4
		C110.2,139,137.8,110.2,171.8,110.2L171.8,110.2z M171.8,206.8c17,0,30.8-14.4,30.8-32.2c0-17.8-13.8-32.2-30.8-32.2
		c-17,0-30.8,14.4-30.8,32.2C141,192.4,154.8,206.8,171.8,206.8L171.8,206.8z M487.5,15c17.4,0,31.5,14.1,31.5,31.5v441
		c0,17.4-14.1,31.5-31.5,31.5h-441C29.1,519,15,504.9,15,487.5v-441C15,29.1,29.1,15,46.5,15L487.5,15z M46.5,471.8
		c0,4.4,1.8,8.3,4.6,11.2C48.3,480.1,46.5,476.1,46.5,471.8z M487.5,471.8v-47.3L372.7,309.7c-6.2-6.2-16.1-6.2-22.3,0
		c0,0-75.8,75.8-92.6,92.6c-16.8,16.7-28,16.5-44.5,0c-16.5-16.5-29.6-29.6-29.6-29.6c-6.2-6.2-16.1-6.2-22.3,0L51.1,482.9
		c2.8,2.8,6.8,4.6,11.1,4.6h409.5C480.4,487.5,487.5,480.5,487.5,471.8L487.5,471.8z M487.5,379.9V62.2c0-8.7-7-15.8-15.8-15.8H62.2
		c-8.7,0-15.8,7-15.8,15.8V443l103.8-103.8c12.3-12.3,32.2-12.3,44.5,0l40.7,40.7l103.7-103.7c12.3-12.3,32.2-12.3,44.5,0
		L487.5,379.9z"/>
</g>
</svg>
