<?xml version="1.0" encoding="utf-8"?>
<!-- Generator: Adobe Illustrator 25.2.1, SVG Export Plug-In . SVG Version: 6.00 Build 0)  -->
<svg version="1.1" id="Layer_1" xmlns="http://www.w3.org/2000/svg" xmlns:xlink="http://www.w3.org/1999/xlink" x="0px" y="0px"
	 viewBox="0 0 551 551" style="enable-background:new 0 0 551 551;" xml:space="preserve">
<path d="M290.4,46.9c76.1,72.6,157.3,145.8,230.9,220.3c2.9,3,4.8,6.6,5.6,10.4l0,0.1c0.9,4,0.6,8.3-1.1,12.5
	c-1.7,4.2-4.5,7.6-7.9,9.9c-3.5,2.4-7.7,3.7-12.1,3.7H453v192.3c0,7.7-6.3,14-14,14H336.2c-7.7,0-14-6.3-14-14V381.3
	c0-12.7-5.2-24.3-13.5-32.6c-8.4-8.4-20-13.6-32.7-13.6c-13,0-24.4,4.3-33.7,13.6c-8.7,8.1-13.6,20.8-13.6,32.6v114.8
	c0,7.7-6.3,14-14,14H112c-7.7,0-14-6.3-14-14V303.8H45.1c-4.4,0-8.6-1.3-12.1-3.7c-3.5-2.3-6.2-5.7-7.9-9.9c-1.5-4.3-2.1-8-1.1-12.5
	c1.2-4.5,2.8-7.8,6.2-11.1c78.6-69.9,152.5-149.9,230.9-220.2c4.1-3.7,9.3-5.5,14.4-5.5C280.8,40.9,286.2,42.9,290.4,46.9
	L290.4,46.9z M390.6,181.1L275.5,71.3L61.1,275.8H112c7.7,0,14,6.3,14,14v192.3h74.8V381.3c0-20,8-38.2,21-51.6
	c13.8-15,34.1-22.6,54.2-22.6c20.4,0,39,8.3,52.4,21.8c13.4,13.5,21.8,32,21.8,52.4v100.8H425V289.8c0-7.7,6.3-14,14-14H490
	L390.6,181.1L390.6,181.1z"/>
</svg>
