<?xml version="1.0" encoding="utf-8"?>
<!-- Generator: Adobe Illustrator 25.2.1, SVG Export Plug-In . SVG Version: 6.00 Build 0)  -->
<svg version="1.1" id="Layer_1" xmlns="http://www.w3.org/2000/svg" xmlns:xlink="http://www.w3.org/1999/xlink" x="0px" y="0px"
	 viewBox="0 0 536 536" style="enable-background:new 0 0 536 536;" xml:space="preserve">
<style type="text/css">
	.st0{fill:#FFFFFF;}
</style>
<g>
	<path class="st0" d="M306.2,368.8c0,21.8-17.4,39.2-39.2,39.2s-39.2-17.4-39.2-39.2s17.4-39.2,39.2-39.2S306.2,347,306.2,368.8z
		 M267,228.8c-21.8,0-39.2,17.4-39.2,39.2s17.4,39.2,39.2,39.2s39.2-17.4,39.2-39.2S288.8,228.8,267,228.8z M267,128
		c-21.8,0-39.2,17.4-39.2,39.2s17.4,39.2,39.2,39.2s39.2-17.4,39.2-39.2S288.8,128,267,128z M519,268c0,138.9-113.1,252-252,252
		S15,406.9,15,268S128.1,16,267,16S519,129.1,519,268z M496.6,268c0-126.6-103-229.6-229.6-229.6S37.4,141.4,37.4,268
		s103,229.6,229.6,229.6S496.6,394.6,496.6,268z"/>
</g>
</svg>
