<?xml version="1.0" encoding="utf-8"?>
<!-- Generator: Adobe Illustrator 25.2.1, SVG Export Plug-In . SVG Version: 6.00 Build 0)  -->
<svg version="1.1" id="Layer_1" xmlns="http://www.w3.org/2000/svg" xmlns:xlink="http://www.w3.org/1999/xlink" x="0px" y="0px"
	 viewBox="0 0 577 577" style="enable-background:new 0 0 577 577;" xml:space="preserve">
<style type="text/css">
	.st0{fill:#FFFFFF;}
</style>
<g>
	<path class="st0" d="M288.5,477.6c-96.5,0-175-78.5-175-175c0-9.7,7.8-17.5,17.5-17.5s17.5,7.8,17.5,17.5c0,77.2,62.8,140,140,140
		s140-62.8,140-140c0-9.7,7.8-17.5,17.5-17.5c9.7,0,17.5,7.8,17.5,17.5C463.5,399.1,385,477.6,288.5,477.6z"/>
	<path class="st0" d="M376,559.8H201c-9.7,0-17.5-7.8-17.5-17.5s7.8-17.5,17.5-17.5h175c9.7,0,17.5,7.8,17.5,17.5
		S385.7,559.8,376,559.8z"/>
	<path class="st0" d="M288.5,559.8c-9.7,0-17.5-7.8-17.5-17.5v-82.1c0-9.7,7.8-17.5,17.5-17.5s17.5,7.8,17.5,17.5v82.1
		C306,551.9,298.2,559.8,288.5,559.8z"/>
	<path class="st0" d="M301.7,280.8c0-9.7,7.8-17.5,17.5-17.5H376v-36.1h-56.8c-9.7,0-17.5-7.8-17.5-17.5s7.8-17.5,17.5-17.5H376
		v-36.1h-56.8c-9.7,0-17.5-7.8-17.5-17.5s7.8-17.5,17.5-17.5H376v-16.4c0-48.3-39.2-87.5-87.5-87.5S201,56.4,201,104.7v16.4h56.8
		c9.7,0,17.5,7.8,17.5,17.5c0,9.7-7.8,17.5-17.5,17.5H201v36.1h56.8c9.7,0,17.5,7.8,17.5,17.5s-7.8,17.5-17.5,17.5H201v36.1h56.8
		c9.7,0,17.5,7.8,17.5,17.5s-7.8,17.5-17.5,17.5H201v16.4c0,48.3,39.2,87.5,87.5,87.5s87.5-39.2,87.5-87.5v-16.4h-56.8
		C309.5,298.3,301.7,290.5,301.7,280.8z"/>
</g>
</svg>
