<?xml version="1.0" encoding="utf-8"?>
<!-- Generator: Adobe Illustrator 25.2.1, SVG Export Plug-In . SVG Version: 6.00 Build 0)  -->
<svg version="1.1" id="Layer_1" xmlns="http://www.w3.org/2000/svg" xmlns:xlink="http://www.w3.org/1999/xlink" x="0px" y="0px"
	 viewBox="0 0 372 372" style="enable-background:new 0 0 372 372;" xml:space="preserve">
<g>
	<path d="M186,180.3c-64.4,0-173.6-9.5-173.6-45.4S121.6,89.5,186,89.5c64.4,0,173.6,9.5,173.6,45.4S250.4,180.3,186,180.3
		L186,180.3z M186,108c-96.9,0-152.3,17.9-155.1,27.4c2.8,9,58.8,26.9,155.1,26.9c96.3,0,152.3-17.9,155.1-27.4
		C338.9,125.9,282.9,108,186,108L186,108z"/>
	<path d="M186,328.1c-64.4,0-173.6-9.5-173.6-45.4c0-5,3.9-9,9-9c5,0,9,3.9,9,9c2.8,9.5,58.8,27.4,155.1,27.4
		c96.9,0,152.3-17.9,155.1-27.4c0-5,3.9-9,9-9c5,0,9,3.9,9,9C359.6,318.6,250.4,328.1,186,328.1L186,328.1z"/>
	<path d="M350.6,283.3c-5,0-9-3.9-9-9V139.9c0-5,3.9-9,9-9c5,0,9,3.9,9,9v134.4C359.6,278.8,355.7,283.3,350.6,283.3z"/>
	<path d="M20.2,283.3c-5,0-9-3.9-9-9V139.9c0-5,3.9-9,9-9c5,0,9,3.9,9,9v134.4C29.2,278.8,25.3,283.3,20.2,283.3z"/>
	<path d="M302.5,166.8c-4.5,0-7.8-2.8-9-6.7c-6.2-5-43.7-14-107.5-14s-100.8,9-107.5,14c-1.1,3.9-4.5,6.7-9,6.7c-5,0-9-3.9-9-9
		c0-11.2,12.3-18.5,41.4-24.1c22.4-3.9,52.1-6.2,84-6.2c31.4,0,61,2.2,84,6.2c29.1,5,41.4,12.3,41.4,24.1
		C311.4,162.9,307.5,166.8,302.5,166.8L302.5,166.8z"/>
	<path d="M211.8,322.5c-5,0-9-3.9-9-9V276h-24.1v37c0,5-3.9,9-9,9c-5,0-9-3.9-9-9v-46.5c0-5,3.9-9,9-9h42c5,0,9,3.9,9,9V313
		C220.7,318,216.8,322.5,211.8,322.5L211.8,322.5z"/>
	<path d="M240.3,322.5c-5,0-9-3.9-9-9l0-69.4h-85.7V313c0,5-3.9,9-9,9c-5,0-9-3.9-9-9l0-78.4c0-5,3.9-9,9-9h104.2c5,0,9,3.9,9,9V313
		C249.3,318,245.4,322.5,240.3,322.5L240.3,322.5z"/>
	<path d="M102,148.9c-2.2,0-4.5-0.6-6.2-2.2l-33.6-30.2c-3.9-3.4-3.9-9-0.6-12.9c3.4-3.9,9-3.9,12.9-0.6l33,30.2
		c3.9,3.4,3.9,9,0.6,12.9C106.5,147.8,104.2,148.9,102,148.9L102,148.9z"/>
	<path d="M258.8,148.9c-2.2,0-5-1.1-6.7-2.8c-3.4-3.9-3.4-9.5,0.6-12.9l33-30.2c3.9-3.4,9.5-3.4,12.9,0.6c3.4,3.9,3.4,9.5-0.6,12.9
		l-33,30.2C262.7,148.3,260.5,148.9,258.8,148.9z"/>
	<path d="M162.5,146.1c-2.8,0-6.2-1.7-7.8-4.5l-20.7-33c-2.8-4.5-1.1-10.1,2.8-12.3c4.5-2.8,10.1-1.1,12.3,2.8l20.7,33
		c2.8,4.5,1.1,10.1-2.8,12.3C165.8,145.5,164.2,146.1,162.5,146.1L162.5,146.1z"/>
	<path d="M197.2,146.1c-1.7,0-3.4-0.6-4.5-1.1c-4.5-2.8-5.6-8.4-2.8-12.3l20.7-33c2.8-4.5,8.4-5.6,12.3-2.8
		c4.5,2.8,5.6,8.4,2.8,12.3l-20.7,33C203.4,144.4,200.6,146.1,197.2,146.1L197.2,146.1z"/>
	<path d="M288.5,116.4c-5,0-9-3.9-9-9V40.3c0-5,3.9-9,9-9c5,0,9,3.9,9,9v67.2C298,112.5,293.5,116.4,288.5,116.4z"/>
	<path d="M184.9,104.7c-5,0-9-3.9-9-9V28.5c0-5,3.9-9,9-9c5,0,9,3.9,9,9v67.2C193.8,100.2,189.9,104.7,184.9,104.7z"/>
	<path d="M68.4,116.4c-5,0-9-3.9-9-9V40.3c0-5,3.9-9,9-9c5,0,9,3.9,9,9v67.2C77.4,112.5,73.4,116.4,68.4,116.4z"/>
	<path d="M290.2,80c-3.9,0-7.3-2.2-8.4-6.2c-1.7-4.5,1.1-10.1,5.6-11.2l21.3-7.3l-22.4-7.8c-4.5-1.7-7.3-6.7-5.6-11.8
		c1.7-4.5,6.7-7.3,11.8-5.6L340,46.4c3.9,1.1,6.2,4.5,6.2,8.4c0,3.9-2.2,7.3-6.2,8.4l-45.9,15.7C291.8,79.5,290.7,80,290.2,80
		L290.2,80z"/>
	<path d="M186,67.7c-3.9,0-7.3-2.2-8.4-6.2c-1.7-4.5,1.1-10.1,5.6-11.2l21.3-7.3l-22.4-7.8c-4.5-1.7-7.3-6.7-5.6-11.8
		c1.7-4.5,6.7-7.3,11.8-5.6l47.6,16.2c3.9,1.1,6.2,4.5,6.2,8.4c0,3.9-2.2,7.3-6.2,8.4l-45.9,15.7C187.7,67.7,186.6,67.7,186,67.7
		L186,67.7z"/>
	<path d="M69.5,80c-3.9,0-7.3-2.2-8.4-6.2c-1.7-4.5,1.1-10.1,5.6-11.2L88,55.4l-22.4-7.8c-4.5-1.7-7.3-6.7-5.6-11.8
		c1.7-4.5,6.7-7.3,11.8-5.6l47.6,16.2c3.9,1.1,6.2,4.5,6.2,8.4c0,3.9-2.2,7.3-6.2,8.4L73.4,78.9C71.8,79.5,70.6,80,69.5,80L69.5,80z
		"/>
</g>
</svg>
