<?xml version="1.0" encoding="utf-8"?>
<!-- Generator: Adobe Illustrator 25.2.1, SVG Export Plug-In . SVG Version: 6.00 Build 0)  -->
<svg version="1.1" id="Layer_1" xmlns="http://www.w3.org/2000/svg" xmlns:xlink="http://www.w3.org/1999/xlink" x="0px" y="0px"
	 viewBox="0 0 596 596" style="enable-background:new 0 0 596 596;" xml:space="preserve">
<g>
	<path d="M325.6,416h-83.9c-4.9,0.1-8.8,4-8.9,8.9v60.9h17.7v-52h66.1v52h17.7v-60.9c0-2.4-0.9-4.6-2.6-6.3
		C330.3,417,328,416,325.6,416L325.6,416z"/>
	<path d="M135,404.4l32,4.9V385l-31.3-4.8L135,404.4z"/>
	<path d="M430,380.2l-32.6,4.8v24.4l32.9-5L430,380.2z"/>
	<path d="M18,285.6v128.3c0,47.7,103.7,73.5,192.5,81.7c2.5,0.2,5-0.6,6.8-2.3c1.9-1.7,2.9-4,2.9-6.5v-76.9h124.5v75.9
		c0,2.5,1,4.8,2.8,6.5c1.7,1.5,3.8,2.3,6.1,2.3h0.7c45.8-3.3,90.9-12.7,134.2-28c37.9-14.8,58.3-33.5,58.3-54.1l0-123.4
		c-45.5,49.2-183.5,63.2-263,63.2C202.4,352.3,59.6,337.5,18,285.6L18,285.6z M184.7,420c0,2.6-1.2,5.1-3.1,6.8
		c-1.6,1.4-3.6,2.1-5.7,2.1h-1.4l-49.8-7.7h0c-4.5-0.7-7.7-4.6-7.6-9.1l1.3-41.9h0c0.1-2.6,1.2-4.9,3.2-6.6c1.9-1.6,4.5-2.3,7-1.9
		l48.6,7.4v0c4.4,0.7,7.6,4.4,7.6,8.9L184.7,420z M379.7,377.4c-0.1-4.4,3.1-8.2,7.5-8.9l50.9-6.9c2.5-0.4,5.2,0.3,7.1,2
		c1.9,1.7,3.1,4.1,3.1,6.7v42c0.1,4.4-3.1,8.2-7.5,8.9l-50.6,7.7h-1.3c-2.1,0-4.2-0.7-5.8-2.1c-2.1-1.6-3.3-4.1-3.4-6.8L379.7,377.4
		z"/>
	<path d="M257.5,250.8h15.4l0-81.1c-17.4,0-35,1.1-51.9,2.3L257.5,250.8z"/>
	<path d="M238.3,251.4l-36.1-77.7v0c-24.9,2.4-49.6,6.3-74,11.7l76.4,68.1C215.4,252.6,226.6,251.9,238.3,251.4L238.3,251.4z"/>
	<path d="M290.6,169.8v80.9h19.2l36.6-78.9C328.1,170.7,309.7,169.9,290.6,169.8L290.6,169.8z"/>
	<path d="M362.3,253.6l77-68.4c-24.4-5.4-49.1-9.3-74-11.7l-36.2,77.8C340.8,252.1,351.9,252.8,362.3,253.6L362.3,253.6z"/>
	<path d="M177.2,256.7h3.7l-73.6-66.3c-24.8,5.8-48.2,16.4-68.8,31.3l102.1,42.8C152.5,260.5,164.8,257.9,177.2,256.7L177.2,256.7z"
		/>
	<path d="M528.9,221.7c-20.6-14.8-44-25.4-68.7-31.2l-74.1,66.2h1.3c13,1.2,25.8,4.1,38.1,8.5L528.9,221.7z"/>
	<path d="M438,278.8c0,9.6-8.6,17.1-50.8,22.8c-34.8,4.2-69.9,6.1-105,5.8c-35.1,0.3-70.2-1.6-105-5.8c-42-5.6-50.6-13.2-50.6-22.8
		v-1.2L26,235.5c-3.6,5.4-5.5,11.8-5.6,18.3c0,54.7,135.7,84.5,263.3,84.5S547,308.8,547,254.1v0c-0.1-6.5-2-12.9-5.5-18.4
		L438,278.8z"/>
	<path d="M412.9,279.1c0,6-58.4,10.9-130.6,10.9c-72.1,0-130.6-4.9-130.6-10.9c0-6,58.4-10.9,130.6-10.9
		C354.5,268.2,412.9,273.1,412.9,279.1"/>
	<path d="M64.7,182.9l54-18.3c3.5-1.3,5.8-4.7,5.8-8.4c0-3.7-2.3-7.1-5.8-8.4l-60.4-21.9c-2.7-1-5.8-0.6-8.2,1.1
		c-2.4,1.6-3.8,4.4-3.7,7.2v73.3c5.9-3.4,12-6.4,18.3-9.1L64.7,182.9z"/>
	<path d="M174.1,170.1v-22.6l53.9-18.3c3.6-1.3,5.9-4.6,5.9-8.4c0.1-3.8-2.3-7.2-5.8-8.4l-59.9-21.9c-2.7-1-5.8-0.6-8.2,1
		c-2.4,1.6-3.8,4.3-3.7,7.2v74.1L174.1,170.1z"/>
	<path d="M291.1,162.6v-30.6l66.7-23.3c3.5-1.3,5.9-4.6,5.9-8.3s-2.3-7.1-5.9-8.3l-72.6-26.2c-2.7-0.9-5.7-0.4-8,1.2
		c-2.3,1.7-3.7,4.3-3.7,7.2v88.4h17.7L291.1,162.6z"/>
	<path d="M408.1,154.6l53.9-18.4h0c3.5-1.3,5.9-4.6,5.9-8.3c0-3.7-2.3-7.1-5.9-8.3l-59.7-22c-2.8-0.9-5.8-0.5-8.2,1.2
		c-2.4,1.7-3.8,4.4-3.7,7.2v63.9c5.9,0.7,11.7,1.6,17.7,2.6L408.1,154.6z"/>
	<path d="M572.2,154.9l-60-22.1h0c-2.8-0.9-5.8-0.5-8.2,1.2c-2.4,1.6-3.8,4.4-3.7,7.2v55.6c6.1,2.5,12,5.4,17.7,8.8V190l54-18.4
		c3.5-1.3,5.9-4.6,5.9-8.3s-2.3-7.1-5.9-8.3L572.2,154.9z"/>
</g>
</svg>
