<?xml version="1.0" encoding="utf-8"?>
<!-- Generator: Adobe Illustrator 25.2.1, SVG Export Plug-In . SVG Version: 6.00 Build 0)  -->
<svg version="1.1" id="Layer_1" xmlns="http://www.w3.org/2000/svg" xmlns:xlink="http://www.w3.org/1999/xlink" x="0px" y="0px"
	 viewBox="0 0 700 700" style="enable-background:new 0 0 700 700;" xml:space="preserve">
<style type="text/css">
	.st0{fill-rule:evenodd;clip-rule:evenodd;fill:#ABABAB;}
</style>
<path class="st0" d="M255.9,469.9c-23.3,23.3-63.3,19.7-89.4-6.4s-29.7-66.1-6.4-89.4c0,0,28.7-28.8,59.9-59.9
	c6.8-6.8,6.8-17.9,0-24.7c-6.8-6.8-17.9-6.8-24.7,0c-31.2,31.2-59.9,59.9-59.9,59.9c-36.2,36.2-34.1,98.4,6.4,138.9
	c40.4,40.5,102.7,42.6,138.9,6.4l137.1-137.1c36.2-36.2,34.1-98.4-6.4-138.9c-6.8-6.8-17.9-6.8-24.7,0c-6.8,6.8-6.8,17.9,0,24.7
	c26.1,26.1,29.7,66.1,6.4,89.4L255.9,469.9z M419.4,65.4L282.3,202.5c-36.2,36.2-34.1,98.4,6.4,138.9c6.8,6.8,17.9,6.8,24.7,0
	c6.8-6.8,6.8-17.9,0-24.7c-26.1-26.1-29.7-66.1-6.4-89.4L444.1,90.1c23.3-23.3,63.3-19.7,89.4,6.4c26.1,26.1,29.7,66.1,6.4,89.4
	c0,0-28.7,28.8-59.9,59.9c-6.8,6.8-6.8,17.9,0,24.7c6.8,6.8,17.9,6.8,24.7,0c31.2-31.2,59.9-59.9,59.9-59.9
	c36.2-36.2,34.1-98.4-6.4-138.9C517.8,31.3,455.5,29.2,419.4,65.4L419.4,65.4z"/>
</svg>
