<?xml version="1.0" encoding="UTF-8"?>
<svg width="700pt" height="700pt" version="1.1" viewBox="0 0 700 700" xmlns="http://www.w3.org/2000/svg">
 <path d="m255.89 469.89c-23.293 23.312-63.301 19.672-89.375-6.4023s-29.715-66.082-6.4023-89.375c0 0 28.734-28.75 59.902-59.918 6.8398-6.8242 6.8398-17.922 0-24.746-6.8281-6.8242-17.902-6.8242-24.746 0-31.168 31.168-59.902 59.922-59.902 59.922-36.156 36.152-34.055 98.418 6.4023 138.86 40.445 40.457 102.71 42.559 138.86 6.4023l137.11-137.09c36.156-36.156 34.055-98.438-6.4062-138.88-6.8242-6.8281-17.918-6.8281-24.742 0-6.8281 6.8242-6.8281 17.918 0 24.742 26.074 26.078 29.715 66.082 6.4023 89.391zm163.48-404.53-137.11 137.09c-36.156 36.156-34.055 98.438 6.4062 138.88 6.8242 6.8281 17.918 6.8281 24.742 0 6.8281-6.8242 6.8281-17.918 0-24.742-26.074-26.078-29.715-66.082-6.4023-89.391l137.11-137.09c23.293-23.312 63.301-19.672 89.375 6.4023s29.715 66.082 6.4023 89.375c0 0-28.734 28.75-59.902 59.918-6.8398 6.8242-6.8398 17.922 0 24.746 6.8281 6.8242 17.902 6.8242 24.746 0 31.168-31.168 59.902-59.922 59.902-59.922 36.156-36.152 34.055-98.418-6.4023-138.86-40.445-40.457-102.71-42.559-138.86-6.4023z" fill-rule="evenodd"/>
</svg>
