<?xml version="1.0" encoding="utf-8"?>
<!-- Generator: Adobe Illustrator 25.2.1, SVG Export Plug-In . SVG Version: 6.00 Build 0)  -->
<svg version="1.1" id="Layer_1" xmlns="http://www.w3.org/2000/svg" xmlns:xlink="http://www.w3.org/1999/xlink" x="0px" y="0px"
	 viewBox="0 0 535 535" style="enable-background:new 0 0 535 535;" xml:space="preserve">
<path d="M510.5,250h-70V92.5c0-9.3-3.7-18.2-10.2-24.8c-6.6-6.6-15.5-10.2-24.8-10.2H248V40c0.1-5.3-2.2-10.4-6.3-13.8
	c-4.1-3.4-9.5-4.8-14.7-3.7l-175,35c-4,0.8-7.6,3-10.2,6.2c-2.6,3.2-3.9,7.2-3.8,11.3v385c-0.1,4.1,1.3,8.1,3.8,11.3
	c2.6,3.2,6.2,5.4,10.2,6.2l175,35c5.2,1.1,10.6-0.3,14.7-3.7c4.1-3.4,6.4-8.5,6.3-13.8v-17.5h157.5c9.3,0,18.2-3.7,24.8-10.2
	c6.6-6.6,10.2-15.5,10.2-24.8V285h70c6.3,0,12-3.3,15.2-8.8s3.1-12.1,0-17.5C522.5,253.3,516.8,250,510.5,250L510.5,250z M213,473.7
	l-140-28V89.4l140-28V473.7z M405.5,250h-62.8l22.8-22.6c4.4-4.4,6.2-10.9,4.5-17c-1.6-6.1-6.4-10.8-12.4-12.4
	c-6.1-1.6-12.5,0.1-17,4.5l-52.5,52.5c-3.3,3.3-5.2,7.8-5.2,12.4s1.9,9.1,5.2,12.4l52.5,52.5c4.4,4.4,10.9,6.2,17,4.5
	c6.1-1.6,10.8-6.4,12.4-12.4c1.6-6.1-0.1-12.5-4.5-17L342.7,285h62.8v157.5H248v-350h157.5V250z"/>
</svg>
