<?xml version="1.0" encoding="utf-8"?>
<!-- Generator: Adobe Illustrator 25.2.1, SVG Export Plug-In . SVG Version: 6.00 Build 0)  -->
<svg version="1.1" id="Layer_1" xmlns="http://www.w3.org/2000/svg" xmlns:xlink="http://www.w3.org/1999/xlink" x="0px" y="0px"
	 viewBox="0 0 561 561" style="enable-background:new 0 0 561 561;" xml:space="preserve">
<style type="text/css">
	.st0{fill-rule:evenodd;clip-rule:evenodd;}
</style>
<g>
	<path class="st0" d="M276,120.8c-45.4,0-81.7,35.6-81.7,78.8s36.2,78.8,81.7,78.8s81.7-35.6,81.7-78.8S321.4,120.8,276,120.8z
		 M171,199.7c0-56.8,47.4-102.2,105-102.2s105,45.4,105,102.2c0,56.8-47.4,102.2-105,102.2S171,256.4,171,199.7L171,199.7z"/>
	<path class="st0" d="M124.3,430.2c0-83.8,67.9-151.7,151.7-151.7c83.8,0,151.7,67.9,151.7,151.7v2c0,11.6-8.2,21.6-19.5,23.9
		l-42.3,8.6c-41.6,8.5-84,11-126.1,7.6c-6.4-0.5-11.2-6.1-10.7-12.6c0.5-6.4,6.1-11.2,12.6-10.7c39.9,3.2,80.2,0.8,119.6-7.2
		l42.3-8.6c0.5-0.1,0.8-0.5,0.8-1v-2c0-70.9-57.5-128.3-128.3-128.3c-70.9,0-128.3,57.5-128.3,128.3v2c0,0.5,0.4,0.9,0.8,1l42.3,8.6
		c6.3,1.3,10.4,7.5,9.1,13.8c-1.3,6.3-7.4,10.4-13.8,9.1l-42.3-8.6c-11.4-2.3-19.5-12.3-19.5-23.9L124.3,430.2z"/>
	<path class="st0" d="M416,109.5c-6.9,0-13.5,1.1-19.6,3.2c-6.1,2.1-12.7-1.2-14.8-7.3c-2.1-6.1,1.2-12.7,7.3-14.8
		c8.5-2.9,17.6-4.5,27.1-4.5c44.8,0,81.7,35.3,81.7,79.5c0,44.3-36.9,79.5-81.7,79.5c-6.4,0-11.7-5.2-11.7-11.7
		c0-6.4,5.2-11.7,11.7-11.7c32.6,0,58.3-25.5,58.3-56.2C474.3,135,448.6,109.5,416,109.5L416,109.5z"/>
	<path class="st0" d="M136,109.5c6.9,0,13.5,1.1,19.6,3.2c6.1,2.1,12.7-1.2,14.8-7.3c2.1-6.1-1.2-12.7-7.3-14.8
		c-8.5-2.9-17.6-4.5-27.1-4.5c-44.8,0-81.7,35.3-81.7,79.5c0,44.3,36.9,79.5,81.7,79.5c6.4,0,11.7-5.2,11.7-11.7
		c0-6.4-5.2-11.7-11.7-11.7c-32.6,0-58.3-25.5-58.3-56.2C77.7,135,103.4,109.5,136,109.5L136,109.5z"/>
	<path class="st0" d="M404.3,233.6c0-6.4,5.2-11.7,11.7-11.7c64.1,0,116.7,50.5,116.7,113.5v4.8c0,10.3-7.4,18.8-17.1,20.8
		l-30.7,6.3c-6.8,1.4-13.7,2.6-20.6,3.6c-6.4,0.9-12.3-3.5-13.2-9.9c-0.9-6.4,3.5-12.3,9.9-13.2c6.4-0.9,12.8-2,19.2-3.3l29.1-5.9
		v-3c0-49.5-41.4-90.2-93.3-90.2C409.6,245.3,404.3,240,404.3,233.6L404.3,233.6z"/>
	<path class="st0" d="M147.7,233.6c0-6.4-5.2-11.7-11.7-11.7c-64.1,0-116.7,50.5-116.7,113.5v4.8c0,10.3,7.4,18.8,17.1,20.8
		l30.7,6.3c6.8,1.4,13.7,2.6,20.6,3.6c6.4,0.9,12.3-3.5,13.2-9.9c0.9-6.4-3.5-12.3-9.9-13.2c-6.4-0.9-12.8-2-19.2-3.3l-29.1-5.9v-3
		c0-49.5,41.4-90.2,93.3-90.2C142.4,245.3,147.7,240,147.7,233.6L147.7,233.6z"/>
</g>
</svg>
