<?xml version="1.0" encoding="utf-8"?>
<!-- Generator: Adobe Illustrator 25.2.1, SVG Export Plug-In . SVG Version: 6.00 Build 0)  -->
<svg version="1.1" id="Layer_1" xmlns="http://www.w3.org/2000/svg" xmlns:xlink="http://www.w3.org/1999/xlink" x="0px" y="0px"
	 viewBox="0 0 571 571" style="enable-background:new 0 0 571 571;" xml:space="preserve">
<g>
	<path d="M306.9,11.1c42,0,80,17,107.5,44.5c27.5,27.5,44.5,65.5,44.5,107.4c0,41.9-17,80-44.5,107.4s-65.5,44.5-107.4,44.5h-44.2
		c-52,0-99.3,21.3-133.6,55.6c-30.7,30.7-51,71.9-54.9,117.5h221c8.9,0,16.1,7.2,16.1,16.1s-7.2,16.1-16.1,16.1H57.4
		c-8.9,0-16.1-7.2-16.1-16.1c0-60.9,24.9-116.2,65-156.4c30.3-30.3,69.4-51.9,112.9-60.7c-7.1-5-13.7-10.6-19.8-16.7
		c-27.5-27.5-44.5-65.5-44.5-107.4c0-42,17-80,44.5-107.4C226.9,28.1,264.9,11.1,306.9,11.1L306.9,11.1z M350.8,559.9
		c-8.9,0-16.1-7.2-16.1-16.1c0-8.9,7.2-16.1,16.1-16.1h162.8c8.9,0,16.1,7.2,16.1,16.1s-7.2,16.1-16.1,16.1H350.8z M350.8,470.9
		c-8.9,0-16.1-7.2-16.1-16.1s7.2-16.1,16.1-16.1h162.8c8.9,0,16.1,7.2,16.1,16.1c0,8.9-7.2,16.1-16.1,16.1H350.8z M350.8,381.8
		c-8.9,0-16.1-7.2-16.1-16.1c0-8.9,7.2-16.1,16.1-16.1h162.8c8.9,0,16.1,7.2,16.1,16.1c0,8.9-7.2,16.1-16.1,16.1H350.8z M391.6,78.4
		c-21.7-21.7-51.6-35.1-84.7-35.1c-33.1,0-63,13.4-84.7,35.1S187,130,187,163.1s13.4,63,35.1,84.7c21.7,21.7,51.6,35.1,84.7,35.1
		c33.1,0,63-13.4,84.7-35.1s35.1-51.6,35.1-84.7C426.7,130,413.3,100.1,391.6,78.4z"/>
</g>
</svg>
