<?xml version="1.0" encoding="utf-8"?>
<!-- Generator: Adobe Illustrator 25.2.1, SVG Export Plug-In . SVG Version: 6.00 Build 0)  -->
<svg version="1.1" id="Layer_1" xmlns="http://www.w3.org/2000/svg" xmlns:xlink="http://www.w3.org/1999/xlink" x="0px" y="0px"
	 viewBox="0 0 585 585" style="enable-background:new 0 0 585 585;" xml:space="preserve">
<g>
	<path d="M32,556.6c0-67.9,27.5-129.5,72.1-174c44.5-44.5,106-72.1,174-72.1c67.9,0,129.5,27.5,174,72.1
		c44.5,44.5,72.1,106,72.1,174c0,7.1-5.8,12.9-12.9,12.9H44.8C37.7,569.5,32,563.7,32,556.6L32,556.6z M447.3,277.9
		c-7.1,0-12.9-5.8-12.9-12.9c0-7.1,5.8-12.9,12.9-12.9h40.9v-41c0-7.1,5.8-12.9,12.9-12.9c7.1,0,12.9,5.8,12.9,12.9v41h41
		c7.1,0,12.9,5.8,12.9,12.9c0,7.1-5.8,12.9-12.9,12.9h-41v40.9c0,7.1-5.8,12.9-12.9,12.9c-7.1,0-12.9-5.8-12.9-12.9v-40.9H447.3z
		 M278,21.1c33.4,0,63.7,13.5,85.6,35.4c21.9,21.9,35.4,52.1,35.4,85.6s-13.5,63.7-35.4,85.5c-21.9,21.9-52.1,35.4-85.6,35.4
		s-63.7-13.5-85.5-35.4S157,175.5,157,142.1c0-33.4,13.5-63.7,35.4-85.6C214.3,34.7,244.6,21.1,278,21.1z M345.4,74.8
		c-17.2-17.2-41.1-27.9-67.4-27.9c-26.3,0-50.1,10.7-67.4,27.9c-17.2,17.2-27.9,41.1-27.9,67.4c0,26.3,10.7,50.1,27.9,67.4
		c17.2,17.2,41.1,27.9,67.4,27.9c26.3,0,50.1-10.7,67.4-27.9c17.2-17.2,27.9-41.1,27.9-67.4C373.3,115.8,362.6,92,345.4,74.8z
		 M122.2,400.9c-37,37-60.9,87.2-64.2,142.9H498c-3.2-55.7-27.1-105.9-64.2-142.9c-39.9-39.9-95-64.5-155.8-64.5
		C217.2,336.3,162.1,361,122.2,400.9L122.2,400.9z"/>
</g>
</svg>
