<?xml version="1.0" encoding="utf-8"?>
<!-- Generator: Adobe Illustrator 25.2.1, SVG Export Plug-In . SVG Version: 6.00 Build 0)  -->
<svg version="1.1" id="Layer_1" xmlns="http://www.w3.org/2000/svg" xmlns:xlink="http://www.w3.org/1999/xlink" x="0px" y="0px"
	 viewBox="0 0 700 700" style="enable-background:new 0 0 700 700;" xml:space="preserve">
<symbol  id="a" viewBox="-11.9 -18.9 23.8 37.8">
	<path d="M2.2-18.9v8.4h9.7v6.7H2.2V8.7C2.2,10,2.5,11,3,11.5c0.6,0.5,1.6,0.7,3.2,0.7h4.8v6.7H3c-3.7,0-6.3-0.8-7.9-2.3
		c-1.6-1.6-2.3-4.2-2.3-7.9V-3.8h-4.7v-6.7h4.7v-8.4L2.2-18.9z"/>
</symbol>
<g>
	<path d="M436.1,533.1H113.1c-8.9,0-16.2-7.2-16.2-16.2l0-405.4c0-4.3,1.7-8.5,4.8-11.5l69-68.5c3-3,7.1-4.7,11.4-4.7h254
		c8.9,0,16.2,7.2,16.2,16.2v176h-10.8l0-176c0-3-2.4-5.4-5.4-5.4l-254,0c-1.4,0-2.8,0.6-3.8,1.6l-69,68.5c-1,1-1.6,2.4-1.6,3.8
		v405.4c0,3,2.4,5.4,5.4,5.4h323.1c3,0,5.4-2.4,5.4-5.4l0-176h10.8v176C452.3,525.8,445.1,533.1,436.1,533.1L436.1,533.1z"/>
	<path d="M166.9,113.1h-64.6v-10.8h64.6c3,0,5.4-2.4,5.4-5.4V32.3h10.8v64.6C183.1,105.8,175.8,113.1,166.9,113.1L166.9,113.1z"/>
	<path d="M260.2,466.7l17.1-85.7l1.2-1.2l251.3-251.3c6.3-6.3,16.5-6.3,22.8,0l45.7,45.7c3,3,4.7,7.1,4.7,11.4
		c0,4.3-1.7,8.4-4.7,11.4L345.9,449.6L260.2,466.7z M287.3,386.3L274,453l66.6-13.3l250.1-250.1c1-1,1.6-2.4,1.6-3.8
		c0-1.4-0.6-2.8-1.6-3.8L545,136.2c-2-2-5.6-2-7.6,0L287.3,386.3z"/>
	<path d="M278.5,387.5l7.6-7.6l60.9,60.9l-7.6,7.6L278.5,387.5z"/>
	<path d="M499.4,166.6l7.6-7.6l60.9,60.9l-7.6,7.6L499.4,166.6z"/>
	<path d="M468.9,197.1l7.6-7.6l60.9,60.9l-7.6,7.6L468.9,197.1z"/>
	<path d="M309,410.3L499.4,220l7.6,7.6L316.6,417.9L309,410.3z"/>
	<path d="M145.4,468.5h75.4v10.8h-75.4V468.5z"/>
	<path d="M145.4,403.9h96.9v10.8h-96.9V403.9z"/>
	<path d="M145.4,339.2h118.5V350H145.4V339.2z"/>
	<path d="M145.4,274.6h161.5v10.8H145.4L145.4,274.6z"/>
	<path d="M145.4,210H350v10.8H145.4V210z"/>
	<g>
		<defs>
			<rect id="SVGID_1_" x="651.8" y="721.5" width="700" height="700"/>
		</defs>
		<clipPath id="SVGID_2_">
			<use xlink:href="#SVGID_1_"  style="overflow:visible;"/>
		</clipPath>
		<g style="clip-path:url(#SVGID_2_);">
			
				<use xlink:href="#a"  width="23.8" height="37.8" x="-11.9" y="-18.9" transform="matrix(1 0 0 1 664.4182 702.6331)" style="overflow:visible;"/>
		</g>
	</g>
</g>
</svg>
