<?xml version="1.0" encoding="utf-8"?>
<!-- Generator: Adobe Illustrator 25.2.1, SVG Export Plug-In . SVG Version: 6.00 Build 0)  -->
<svg version="1.1" id="Layer_1" xmlns="http://www.w3.org/2000/svg" xmlns:xlink="http://www.w3.org/1999/xlink" x="0px" y="0px"
	 viewBox="0 0 619 619" style="enable-background:new 0 0 619 619;" xml:space="preserve">
<style type="text/css">
	.st0{fill:#FFFFFF;}
</style>
<g>
	<path class="st0" d="M425.4,562.7h-323c-8.9,0-16.2-7.2-16.2-16.2V141.1c0-4.3,1.7-8.5,4.8-11.5L160,61c3-3,7.1-4.7,11.4-4.7h254
		c8.9,0,16.2,7.2,16.2,16.2v176h-10.8v-176c0-3-2.4-5.4-5.4-5.4h-254c-1.4,0-2.8,0.6-3.8,1.6l-69,68.5c-1,1-1.6,2.4-1.6,3.8v405.4
		c0,3,2.4,5.4,5.4,5.4h323.1c3,0,5.4-2.4,5.4-5.4v-176h10.8v176C441.6,555.4,434.4,562.7,425.4,562.7L425.4,562.7z"/>
	<path class="st0" d="M156.2,142.7H91.6v-10.8h64.6c3,0,5.4-2.4,5.4-5.4V61.9h10.8v64.6C172.4,135.4,165.1,142.7,156.2,142.7
		L156.2,142.7z"/>
	<path class="st0" d="M249.5,496.3l17.1-85.7l1.2-1.2l251.3-251.3c6.3-6.3,16.5-6.3,22.8,0l45.7,45.7c3,3,4.7,7.1,4.7,11.4
		c0,4.3-1.7,8.4-4.7,11.4L335.2,479.2L249.5,496.3z M276.6,415.9l-13.3,66.7l66.6-13.3L580,219.2c1-1,1.6-2.4,1.6-3.8
		c0-1.4-0.6-2.8-1.6-3.8l-45.7-45.8c-2-2-5.6-2-7.6,0L276.6,415.9z"/>
	<path class="st0" d="M267.8,417.1l7.6-7.6l60.9,60.9l-7.6,7.6L267.8,417.1z"/>
	<path class="st0" d="M488.7,196.2l7.6-7.6l60.9,60.9l-7.6,7.6L488.7,196.2z"/>
	<path class="st0" d="M458.2,226.7l7.6-7.6l60.9,60.9l-7.6,7.6L458.2,226.7z"/>
	<path class="st0" d="M298.3,439.9l190.4-190.3l7.6,7.6L305.9,447.5L298.3,439.9z"/>
	<path class="st0" d="M134.7,498.1h75.4v10.8h-75.4V498.1z"/>
	<path class="st0" d="M134.7,433.5h96.9v10.8h-96.9V433.5z"/>
	<path class="st0" d="M134.7,368.8h118.5v10.8H134.7V368.8z"/>
	<path class="st0" d="M134.7,304.2h161.5V315H134.7V304.2z"/>
	<path class="st0" d="M134.7,239.6h204.6v10.8H134.7V239.6z"/>
</g>
</svg>
