<?xml version="1.0" encoding="utf-8"?>
<!-- Generator: Adobe Illustrator 25.2.1, SVG Export Plug-In . SVG Version: 6.00 Build 0)  -->
<svg version="1.1" id="Layer_1" xmlns="http://www.w3.org/2000/svg" xmlns:xlink="http://www.w3.org/1999/xlink" x="0px" y="0px"
	 viewBox="0 0 524 524" style="enable-background:new 0 0 524 524;" xml:space="preserve">
<style type="text/css">
	.st0{fill-rule:evenodd;clip-rule:evenodd;fill:#FFFFFF;}
</style>
<path class="st0" d="M190.1,295.2l130.9-120.8c10.8-9.9,27-8.6,36.2,3c9.2,11.6,8,29-2.8,39L227,334l87.8,156.4
	c7,12.5,20.5,19.5,34.3,17.9c13.8-1.6,25.4-11.5,29.6-25.3c28.4-94.1,99.7-330.2,125.9-417c3.9-12.9,0.6-26.9-8.5-36.5
	c-9.1-9.6-22.6-13.2-35.1-9.3L41.4,150.1c-13.9,4.3-23.8,17-25,32c-1.2,15,6.7,29.2,19.7,35.8L190.1,295.2z"/>
</svg>
